Genre:Action
Language:English
IMDb:http://www.imdb.com/title/tt1043839/
Source:1080p.BluRay.x264-WAVEY


Format : Matroska
File size : 1.68 GiB
Duration : 1h 30mn
Overall bit rate : 2 674 Kbps


Video
Format settings, CABAC : Yes
Format settings, ReFrames : 4 frames
Codec ID : V_MPEG4/ISO/AVC
Duration : 1h 30mn
Bit rate : 2 300 Kbps
Width : 1 280 pixels
Height : 720 pixels
Display aspect ratio : 16:9
Frame rate mode : Variable
Frame rate : 23.976 fps
Color space : YUV
Chroma subsampling : 4:2:0
Bit depth : 8 bits
Scan type : Progressive
Bits/(Pixel*Frame) : 0.104
Stream size : 1.41 GiB (84%)
Writing library : x264 core 106 r1732 b20059a

Audio
ID : 2
Format : AC-3
Format/Info : Audio Coding 3
Mode extension : CM (complete main)
Codec ID : A_AC3
Duration : 1h 30mn
Bit rate mode : Constant
Bit rate : 384 Kbps
Channel(s) : 6 channels
Channel positions : Front: L C R, Side: L R, LFE
Sampling rate : 48.0 KHz
Bit depth : 16 bits
Video delay : -1mn 5s
Stream size : 247 MiB (14%)
Language : English



Plot:
Ex-spy Jacob Keane is drawn back into the shadowy world of international espionage when his former partner Marta reappears after 17 years, her memory erased, on the run from a pair of deadly, psychopathic assassins

TRAILER:  http://www.imdb.com/video/screenplay/vi2548630553/

